<?xml version="1.0" standalone="no"?>
<!DOCTYPE svg PUBLIC "-//W3C//DTD SVG 20010904//EN"
 "http://www.w3.org/TR/2001/REC-SVG-20010904/DTD/svg10.dtd">
<svg version="1.0" xmlns="http://www.w3.org/2000/svg"
 width="900.000000pt" height="900.000000pt" viewBox="0 0 900.000000 900.000000"
 preserveAspectRatio="xMidYMid meet">
<metadata>
Created by potrace 1.10, written by Peter Selinger 2001-2011
</metadata>
<g transform="translate(0.000000,900.000000) scale(0.100000,-0.100000)"
fill="#000000" stroke="none">
<path d="M6980 7573 c-14 -3 -29 -9 -34 -14 -6 -5 -23 -9 -39 -9 -25 0 -80
-24 -191 -83 -35 -19 -129 -108 -179 -170 -35 -42 -82 -130 -107 -197 -14 -40
-41 -190 -42 -235 -1 -54 24 -199 38 -227 8 -15 14 -36 14 -47 0 -11 4 -22 9
-26 5 -3 22 -31 38 -63 29 -60 200 -242 227 -242 7 0 19 -7 26 -15 7 -8 19
-15 28 -15 8 0 23 -6 31 -13 9 -7 43 -21 76 -31 33 -10 73 -23 90 -29 43 -16
231 -15 285 2 114 35 160 52 191 71 19 11 43 24 54 29 40 17 165 144 209 209
43 66 67 119 99 218 23 71 24 279 1 349 -23 70 -45 127 -55 145 -4 8 -17 32
-28 52 -45 83 -154 192 -247 246 -57 33 -144 72 -163 72 -9 0 -34 7 -56 15
-38 14 -214 19 -275 8z"/>
<path d="M2730 7223 c-54 -10 -105 -87 -94 -142 4 -18 22 -48 40 -67 l34 -34
1444 0 1444 0 31 32 c55 56 50 146 -12 192 l-28 21 -1417 1 c-779 1 -1428 -1
-1442 -3z"/>
<path d="M5240 6499 c-110 -9 -216 -29 -247 -47 -12 -6 -35 -12 -52 -12 -16 0
-42 -6 -58 -14 -15 -8 -64 -29 -108 -48 -86 -35 -181 -83 -205 -103 -8 -6 -22
-15 -30 -19 -106 -49 -376 -285 -510 -447 -118 -142 -157 -205 -180 -290 -17
-67 -17 -71 1 -129 10 -33 26 -72 36 -87 27 -44 103 -113 142 -129 73 -32 155
-54 196 -54 99 0 233 67 293 146 65 86 166 199 236 263 54 50 191 143 251 170
28 13 63 29 78 37 16 8 39 14 52 14 12 0 40 7 61 16 55 23 369 23 433 0 24 -9
53 -16 65 -16 35 0 46 -17 33 -54 -9 -27 -46 -97 -77 -146 -5 -8 -23 -42 -39
-75 -17 -33 -44 -82 -60 -110 -16 -27 -42 -72 -56 -100 -14 -27 -48 -92 -76
-144 -27 -52 -59 -113 -71 -135 -11 -23 -24 -48 -29 -56 -5 -8 -12 -22 -15
-30 -3 -8 -15 -33 -26 -54 -12 -22 -55 -105 -95 -185 -41 -80 -103 -200 -139
-266 -35 -66 -68 -129 -74 -140 -6 -11 -19 -33 -30 -50 -11 -16 -23 -37 -27
-45 -19 -42 -137 -185 -217 -265 -93 -93 -245 -215 -267 -215 -7 0 -20 -6 -28
-14 -19 -17 -135 -76 -150 -76 -5 0 -22 -5 -38 -12 -109 -45 -352 -62 -483
-33 -41 9 -88 23 -103 31 -16 8 -34 14 -40 14 -6 0 -52 20 -102 44 -149 72
-161 76 -240 76 -71 0 -95 -6 -181 -47 -36 -17 -118 -96 -139 -133 -49 -89
-55 -112 -55 -209 0 -87 3 -100 29 -146 32 -55 107 -136 145 -157 126 -67 300
-148 321 -148 8 0 29 -6 47 -14 36 -15 83 -28 193 -53 110 -25 530 -30 655 -8
52 10 112 24 133 31 20 8 48 14 62 14 13 0 39 6 57 14 18 8 53 22 78 31 57 21
111 45 130 56 8 5 22 12 30 15 27 10 95 45 125 64 17 10 43 26 59 34 81 44
205 146 330 269 l139 139 66 -27 c36 -15 81 -33 99 -41 17 -8 47 -20 65 -28
69 -30 169 -82 179 -93 6 -7 16 -13 24 -13 7 0 30 -12 51 -26 21 -14 47 -30
58 -35 11 -5 34 -18 50 -29 17 -11 41 -25 55 -31 14 -5 39 -21 57 -35 17 -13
34 -24 37 -24 3 0 39 -24 81 -52 41 -29 83 -57 92 -63 56 -33 263 -195 292
-227 47 -54 131 -184 131 -202 0 -8 4 -17 9 -20 8 -5 31 -46 74 -130 5 -12 14
-28 18 -36 18 -34 82 -167 96 -200 9 -19 20 -42 25 -50 4 -8 11 -22 14 -30 3
-8 20 -44 36 -80 17 -36 43 -92 58 -125 15 -33 42 -91 60 -130 17 -38 36 -77
40 -85 5 -8 21 -37 34 -65 14 -27 34 -59 43 -70 28 -32 93 -78 132 -94 47 -19
204 -20 251 -2 19 8 40 16 45 18 58 22 146 108 179 173 22 45 26 64 26 143 -1
65 -5 98 -15 111 -8 11 -15 30 -15 42 0 12 -7 27 -15 34 -8 7 -15 18 -15 25 0
8 -7 26 -15 42 -14 27 -83 173 -140 298 -27 59 -151 317 -194 405 -13 25 -38
72 -56 105 -32 57 -38 67 -50 98 -3 6 -13 24 -23 38 -9 15 -30 50 -47 78 -16
28 -33 51 -37 51 -5 0 -8 5 -8 11 0 34 -148 191 -260 275 -36 27 -69 52 -75
56 -112 89 -501 358 -549 379 -12 5 -34 18 -51 29 -16 11 -39 24 -50 30 -52
27 -80 48 -83 62 -2 8 14 46 34 84 20 38 64 123 99 189 35 66 75 140 89 165
14 25 28 51 31 58 12 30 18 40 50 97 19 33 44 80 57 105 13 25 35 63 49 85 14
22 36 60 48 85 12 25 31 59 41 75 30 48 46 76 73 130 14 28 37 67 51 88 14 21
26 40 26 43 0 3 10 19 21 36 20 28 25 29 68 23 25 -3 69 -12 96 -20 111 -30
179 -38 363 -42 195 -5 222 -2 392 39 25 6 65 14 90 19 24 5 49 14 54 19 6 6
20 10 32 10 12 0 35 6 51 14 15 8 60 29 98 46 39 18 77 36 85 41 8 5 24 13 35
18 11 5 37 21 58 35 21 14 42 26 47 26 6 0 10 4 10 9 0 5 9 13 20 16 11 3 26
12 32 18 7 7 42 35 78 62 161 121 349 322 462 494 21 31 38 64 38 74 0 11 9
21 20 24 18 5 20 14 20 84 0 63 -3 79 -15 79 -8 0 -18 12 -21 28 -11 43 -74
116 -133 153 -91 57 -127 68 -228 68 -83 1 -100 -2 -157 -29 -68 -33 -141 -98
-184 -165 -31 -49 -247 -266 -283 -286 -15 -8 -55 -31 -88 -51 -34 -21 -68
-38 -75 -38 -8 0 -19 -7 -26 -15 -7 -8 -19 -15 -27 -15 -8 0 -29 -6 -46 -14
-76 -32 -166 -46 -299 -46 -73 0 -151 5 -173 11 -22 6 -58 14 -80 19 -39 8
-86 23 -170 54 -40 14 -331 161 -350 176 -5 4 -37 22 -70 40 -33 18 -78 43
-100 56 -22 12 -65 35 -95 51 -149 78 -162 84 -280 130 -113 45 -141 54 -185
62 -23 4 -46 11 -53 15 -23 14 -169 37 -287 46 -140 10 -205 10 -335 -1z"/>
<path d="M269 5932 c-36 -2 -53 -10 -75 -33 -26 -27 -29 -37 -29 -95 0 -59 3
-66 30 -89 19 -15 49 -26 80 -30 28 -3 676 -5 1440 -3 l1390 3 30 23 c42 33
60 91 42 141 -7 22 -25 50 -40 61 l-27 22 -1398 1 c-768 1 -1418 1 -1443 -1z"/>
<path d="M1126 4440 c-16 -5 -42 -21 -57 -36 -25 -24 -29 -35 -29 -84 0 -52 3
-60 37 -93 l36 -37 1430 0 c1343 0 1431 1 1459 18 33 19 68 78 68 115 0 40
-52 101 -97 115 -48 14 -2799 16 -2847 2z"/>
<path d="M61 2761 c-18 -10 -40 -29 -47 -42 -19 -34 -17 -106 3 -139 37 -63
-27 -60 1358 -60 1166 1 1263 2 1295 18 39 20 80 74 80 108 0 43 -33 95 -72
115 -36 18 -78 19 -1310 19 -1207 -1 -1275 -2 -1307 -19z"/>
</g>
</svg>
